<?xml version="1.0" standalone="no"?>
<!DOCTYPE svg PUBLIC "-//W3C//DTD SVG 20010904//EN"
 "http://www.w3.org/TR/2001/REC-SVG-20010904/DTD/svg10.dtd">
<svg version="1.0" xmlns="http://www.w3.org/2000/svg"
 width="370.000000pt" height="370.000000pt" viewBox="0 0 370.000000 370.000000"
 preserveAspectRatio="xMidYMid meet">
<metadata>
Created by potrace 1.11, written by Peter Selinger 2001-2013
</metadata>
<g transform="translate(0.000000,370.000000) scale(0.100000,-0.100000)"
fill="#000000" stroke="none">
<path d="M790 3115 c0 -5 -3 -20 -6 -32 -5 -20 -1 -22 53 -28 80 -9 138 -31
158 -62 35 -53 20 -121 -238 -1080 -166 -615 -257 -936 -280 -985 -55 -119
-141 -183 -274 -204 -24 -4 -43 -7 -43 -8 0 -1 -4 -15 -9 -31 l-8 -30 363 0
c236 0 364 4 364 10 0 6 3 20 6 32 5 19 2 23 -17 23 -13 0 -55 7 -93 15 -127
27 -184 101 -172 224 6 73 458 1804 467 1793 5 -6 280 -2090 279 -2115 0 -5
19 -7 42 -5 l41 3 714 1120 c393 616 718 1124 724 1130 5 5 3 -13 -5 -40 -8
-28 -121 -446 -251 -930 -274 -1023 -275 -1025 -314 -1087 -39 -61 -90 -87
-202 -101 -73 -9 -89 -14 -89 -28 0 -10 -2 -23 -5 -31 -4 -11 92 -13 552 -13
361 0 561 4 565 10 4 6 8 20 8 31 0 19 -8 22 -61 28 -137 16 -176 54 -166 162
6 60 462 1799 513 1956 45 139 103 190 231 206 l58 7 3 39 c3 32 1 38 -13 32
-9 -3 -184 -6 -389 -6 l-373 0 -564 -885 c-418 -658 -566 -881 -571 -868 -3
10 -48 392 -98 848 -50 457 -94 848 -97 870 l-5 40 -399 0 c-259 0 -399 -4
-399 -10z"/>
</g>
</svg>
